# xmcd CD database file
#
# Track frame offsets:
#	150
#	20947
#	45071
#	66924
#	85542
#	100803
#	114593
#	128914
#	157653
#	168975
#
# Disc length: 2382 seconds
#
# Revision: 3
# Processed by: cddbd v1.5.2PL0 Copyright (c) Steve Scherf et al.
# Submitted via: CDex 1.50
#
DISCID=70094c0a
DTITLE=Rolf Kühn Unit - Stereo
DYEAR=2015
DGENRE=Jazz
TTITLE0=District 7
TTITLE1=Black Jasmine
TTITLE2=Q 11
TTITLE3=Descendants
TTITLE4=Stereo
TTITLE5=Husky
TTITLE6=A Little Circus
TTITLE7=Shogun
TTITLE8=Open Windows
TTITLE9=Goodbye
EXTD=Rolf Kuehn cl, Christian Lillinger dr,\nRonny Graupe g, Johannes Fink b\n YEAR: 2015
EXTT0=
EXTT1=
EXTT2=
EXTT3=Comp. Johannes Fink
EXTT4=
EXTT5=Comp. Ronny Graupe
EXTT6=
EXTT7=Comp. Ronny Graupe
EXTT8=
EXTT9=
PLAYORDER=
